<svg width="30" height="18" viewBox="0 0 30 18" fill="none" xmlns="http://www.w3.org/2000/svg">
<path d="M0.142857 2.06666C0.142857 1.10937 0.918896 0.333328 1.87619 0.333328H28.1238C29.0811 0.333328 29.8571 1.10937 29.8571 2.06666C29.8571 3.02396 29.0811 3.79999 28.1238 3.79999H1.87619C0.918897 3.79999 0.142857 3.02396 0.142857 2.06666Z" fill="#5B89BB"/>
<path d="M0.142857 9C0.142857 8.0427 0.918896 7.26666 1.87619 7.26666H28.1238C29.0811 7.26666 29.8571 8.0427 29.8571 9C29.8571 9.95729 29.0811 10.7333 28.1238 10.7333H1.87619C0.918897 10.7333 0.142857 9.95729 0.142857 9Z" fill="#5B89BB"/>
<path d="M29.8571 15.9333C29.8571 14.976 29.0811 14.2 28.1238 14.2H1.87619C0.918897 14.2 0.142857 14.976 0.142857 15.9333C0.142857 16.8906 0.918896 17.6667 1.87619 17.6667H28.1238C29.0811 17.6667 29.8571 16.8906 29.8571 15.9333Z" fill="#5B89BB"/>
</svg>
