<svg width="185" height="485" viewBox="0 0 185 485" fill="none" xmlns="http://www.w3.org/2000/svg">
<g filter="url(#filter0_dd_335_238)">
<path d="M74.3611 104.089C72.249 104.348 70.8597 103.826 70.1934 102.522C69.131 100.481 70.1007 99.365 73.1023 99.1756C73.8328 99.1116 74.5633 99.0475 75.2939 98.9835C75.802 98.9022 76.1394 98.7622 76.3061 98.5635C76.506 98.3252 76.5852 97.9685 76.5436 97.4937L76.3947 95.7952L62.2589 97.0341C60.6882 97.1718 59.8341 96.4553 59.6964 94.8847C59.5588 93.314 60.2753 92.4599 61.8459 92.3222L75.9817 91.0833L75.756 88.5081L56.7439 90.1745C55.1002 90.3185 54.2047 89.5504 54.0575 87.8702C53.9134 86.2265 54.6632 85.3326 56.3069 85.1886L64.5802 84.4635L75.319 83.5223L75.1125 81.1663L61.2507 82.3812C59.7896 82.5093 58.9951 81.8428 58.867 80.3817C58.739 78.9206 59.4055 78.1261 60.8665 77.998L74.7284 76.7831L74.5171 74.3723L63.3399 75.3519C62.2807 75.4448 61.3935 75.1913 60.6784 74.5914C59.9633 73.9916 59.5593 73.162 59.4665 72.1027L59.1399 68.377C59.0471 67.3177 59.3006 66.4306 59.9004 65.7154C60.5003 65.0003 61.3299 64.5964 62.3891 64.5035L73.5663 63.5239L73.3694 61.2775L55.6722 62.8286C53.9555 62.9791 53.0219 62.1959 52.8714 60.4792C52.721 58.7624 53.5041 57.8288 55.2209 57.6783L72.918 56.1273L72.8892 55.7985C72.7003 53.6435 73.7017 52.4699 75.8933 52.2778C78.0484 52.0889 79.2203 53.072 79.4092 55.2271L79.438 55.5558L97.6283 53.9615C99.345 53.8111 100.279 54.5942 100.429 56.311C100.58 58.0277 99.7964 58.9613 98.0797 59.1118L79.8894 60.7061L80.0863 62.9525L91.9757 61.9104C93.035 61.8176 93.9222 62.0711 94.6373 62.671C95.3524 63.2708 95.7564 64.1004 95.8492 65.1596L96.1757 68.8854C96.2686 69.9446 96.0151 70.8318 95.4152 71.5469C94.8154 72.262 93.9858 72.666 92.9265 72.7588L81.0371 73.8009L81.2484 76.2116L94.0145 75.0928C95.0737 74.9999 95.9609 75.2534 96.676 75.8533C97.3911 76.4531 97.7951 77.2827 97.8879 78.342L98.1665 81.5198L101.344 81.2413C102.988 81.0972 103.882 81.847 104.026 83.4907C104.173 85.171 103.425 86.0831 101.781 86.2272L98.6034 86.5057L98.9396 90.341C99.0292 91.3637 98.7924 92.2311 98.229 92.943C97.6625 93.6183 96.8496 94.0024 95.7903 94.0953L82.9147 95.2238L83.0636 96.9223C83.2044 98.5294 83.0893 99.7357 82.7182 100.541C82.3869 101.38 81.7123 102.083 80.6947 102.651C79.388 103.281 77.2768 103.76 74.3611 104.089ZM82.5017 90.5118L87.378 90.0844L90.9942 89.7675C91.8708 89.6907 92.2707 89.2139 92.1939 88.3373L92.0834 87.0771L82.276 87.9367L82.5017 90.5118ZM81.839 82.9508L91.6464 82.0912L91.5264 80.7215C91.4688 80.064 91.1112 79.7641 90.4537 79.8217L86.5089 80.1675L81.6326 80.5948L81.839 82.9508ZM66.7603 70.9114L74.1569 70.2631L73.9264 67.6332L69.6528 68.0077L66.6942 68.267C65.8175 68.3439 65.4176 68.8206 65.4945 69.6972L65.5089 69.8616C65.5761 70.6287 65.9932 70.9786 66.7603 70.9114ZM80.677 69.6916L85.0601 69.3075L88.1832 69.0338C89.0598 68.9569 89.4597 68.4802 89.3829 67.6036L89.3685 67.4392C89.3012 66.6721 88.8841 66.3222 88.117 66.3894L80.4465 67.0617L80.677 69.6916ZM98.0609 157.168C95.7661 157.443 94.2346 156.767 93.4664 155.141C92.3721 152.734 93.5282 151.437 96.9348 151.249C97.1539 151.229 97.4445 151.186 97.8066 151.117C98.0258 151.098 98.1719 151.085 98.2449 151.079C98.9723 150.978 99.3087 150.617 99.2543 149.996L97.1558 126.053C96.9701 123.935 97.9365 122.782 100.055 122.597C102.174 122.411 103.326 123.378 103.511 125.496L104.424 135.906L105.615 149.494C105.759 151.138 105.687 152.414 105.398 153.323C105.073 154.234 104.422 154.991 103.444 155.592C102.286 156.245 100.492 156.771 98.0609 157.168ZM77.5146 158.969C75.4756 159.221 74.1164 158.622 73.4373 157.173C72.3987 154.982 73.3436 153.795 76.2722 153.612C76.4548 153.596 76.6192 153.581 76.7653 153.568C77.3497 153.517 77.6163 153.199 77.5651 152.615L77.0657 146.917L75.9996 148.611C75.7759 148.999 75.4664 149.247 75.071 149.355C74.7121 149.46 74.3754 149.398 74.0607 149.168C72.494 148.09 70.8719 147.22 69.1943 146.558L70.0586 156.42C70.2379 158.465 69.3048 159.578 67.2593 159.757C65.2138 159.936 64.1014 159.003 63.9222 156.958L61.6028 130.494C61.5099 129.435 61.7634 128.548 62.3633 127.833C62.9632 127.118 63.7927 126.714 64.852 126.621L71.372 126.049L77.892 125.478C78.9513 125.385 79.8385 125.638 80.5536 126.238C81.2687 126.838 81.6726 127.668 81.7655 128.727L83.8208 152.177C83.9456 153.602 83.8773 154.712 83.6158 155.508C83.3241 156.38 82.7775 157.072 81.9758 157.584C80.928 158.228 79.4409 158.689 77.5146 158.969ZM90.6381 147.439C88.5926 147.618 87.4802 146.685 87.3009 144.64L86.5902 136.531L85.8795 128.422C85.7003 126.376 86.6334 125.264 88.6789 125.085C90.7243 124.905 91.8367 125.838 92.016 127.884L93.4374 144.102C93.6167 146.147 92.6836 147.26 90.6381 147.439ZM76.9168 145.218L76.3214 138.424L75.4052 139.94C75.1815 140.328 74.9085 140.573 74.5862 140.674C74.2607 140.74 73.9604 140.674 73.6855 140.477C71.9759 139.449 70.2291 138.627 68.4451 138.01L69.0214 144.585L69.852 143.353C70.2359 142.694 70.8059 142.478 71.562 142.706C72.1657 142.874 72.9465 143.174 73.9045 143.605C75.1707 144.194 76.1748 144.731 76.9168 145.218ZM76.1389 136.342L75.8027 132.507C75.7259 131.63 75.2492 131.231 74.3725 131.307L69.2223 131.759C68.3456 131.836 67.9457 132.312 68.0226 133.189L68.3395 136.805L69.3604 135.225C69.911 134.367 70.6771 134.079 71.6588 134.361C71.9241 134.448 72.3419 134.596 72.9122 134.803C73.0679 134.9 73.2021 134.962 73.3149 134.989C74.3825 135.411 75.3238 135.862 76.1389 136.342ZM60.5806 123.241C58.6081 123.414 57.5355 122.514 57.3626 120.541C57.1897 118.569 58.0895 117.496 60.062 117.323L68.39 116.594C67.9973 115.892 67.4107 115.078 66.6302 114.153C65.7338 113.164 65.3599 112.258 65.5087 111.435C65.6907 110.573 66.3835 109.868 67.587 109.321C69.0763 108.675 70.4233 108.925 71.6279 110.071C72.5577 111.02 73.4192 112.03 74.2124 113.102C74.5558 113.661 74.642 114.224 74.4708 114.791C74.2997 115.358 73.8783 115.8 73.2067 116.116L73.0472 116.185L89.4842 114.745L88.1856 114.417C87.5422 114.216 87.384 113.88 87.7108 113.409C88.6119 111.932 89.4399 110.461 90.1949 108.996C91.0544 107.043 92.5158 106.289 94.5792 106.734C97.3558 107.338 97.9017 108.946 96.2168 111.56C95.6028 112.534 94.984 113.453 94.3605 114.317L103.127 113.549C105.099 113.376 106.172 114.276 106.345 116.248C106.518 118.221 105.618 119.293 103.645 119.466L82.113 121.354L60.5806 123.241ZM69.5046 213.722C67.7148 213.879 66.7414 213.063 66.5846 211.273C66.4277 209.483 67.2442 208.51 69.034 208.353L79.4989 207.436C78.8992 206.053 78.4045 205.029 78.015 204.363C77.5459 203.631 77.3954 202.964 77.5633 202.36C77.7678 201.753 78.2821 201.322 79.1062 201.065L79.2658 200.996L76.1427 201.27C75.3026 201.344 74.6045 201.147 74.0483 200.681C73.4921 200.214 73.1772 199.561 73.1035 198.721L72.3304 189.899C72.2376 188.84 72.4911 187.953 73.0909 187.238C73.6908 186.523 74.5203 186.119 75.5796 186.026L99.8516 183.899C100.911 183.806 101.798 184.059 102.513 184.659C103.228 185.259 103.632 186.089 103.725 187.148L104.431 195.202C104.524 196.261 104.27 197.148 103.67 197.864C103.071 198.579 102.241 198.983 101.182 199.075L99.8668 199.191L101.096 199.359C101.727 199.414 101.905 199.767 101.631 200.416C100.854 202.472 100.106 204.231 99.3876 205.692L110.346 204.732C112.135 204.575 113.109 205.392 113.266 207.181C113.422 208.971 112.606 209.945 110.816 210.101L90.1604 211.912L69.5046 213.722ZM83.9368 207.047L94.6209 206.11L93.725 205.968C93.3168 205.93 93.1913 205.757 93.3483 205.449C94.1142 203.688 94.8077 201.732 95.4288 199.58L89.1279 200.132L82.8271 200.684C83.7363 201.819 84.5305 203.111 85.2097 204.561C85.4403 205.093 85.447 205.589 85.2298 206.05C85.0458 206.471 84.668 206.78 84.0964 206.977L83.9368 207.047ZM80.4581 195.702L96.2924 194.314C97.169 194.237 97.5689 193.761 97.4921 192.884L97.2952 190.638C97.2184 189.761 96.7416 189.361 95.865 189.438L87.9204 190.134L80.0307 190.826C79.154 190.902 78.7541 191.379 78.831 192.256L79.0279 194.502C79.1047 195.379 79.5814 195.779 80.4581 195.702ZM68.2251 189.045C67.3869 189.56 66.6358 189.81 65.9719 189.794C65.3414 189.739 64.7019 189.372 64.0534 188.692C63.1602 187.74 62.7761 186.927 62.9011 186.254C63.0594 185.541 63.7339 184.837 64.9246 184.144C66.8613 182.723 68.6271 181.243 70.2222 179.705C69.3482 178.971 68.1112 178.086 66.5112 177.048C64.8445 176.09 64.6276 174.876 65.8607 173.406C66.7938 172.294 67.8967 172.068 69.1693 172.73C71.1346 173.735 72.6551 174.706 73.731 175.643C75.0877 173.904 76.299 171.976 77.3648 169.858L68.8724 170.603C67.1191 170.756 66.1656 169.957 66.012 168.203C65.8583 166.45 66.6581 165.496 68.4114 165.343L81.1775 164.224C82.4559 164.112 83.3662 164.419 83.9082 165.144C84.4503 165.869 84.5662 166.982 84.2559 168.481C83.4938 171.125 82.3536 173.654 80.8354 176.069C80.4117 176.695 80.6382 176.97 81.5149 176.893L92.8564 175.899C93.733 175.822 93.867 175.461 93.2583 174.815C91.1412 172.497 89.1151 169.749 87.1801 166.569C86.0973 164.713 86.5331 163.386 88.4877 162.589C90.1564 161.891 91.4463 162.33 92.3575 163.907C92.8329 164.712 93.4887 165.685 94.3249 166.826C95.4137 165.81 96.5246 164.627 97.6577 163.276C98.2543 162.525 98.8615 162.104 99.4793 162.013C100.094 161.885 100.827 162.06 101.679 162.538C103.58 163.659 103.684 165.049 101.989 166.706C100.454 168.092 98.984 169.381 97.5793 170.571C98.1816 171.144 99.0819 171.967 100.28 173.04L100.345 173.145C101.773 171.805 103.124 170.416 104.396 168.98C105.383 167.642 106.652 167.42 108.203 168.315C110.065 169.403 110.2 170.735 108.608 172.31C106.98 173.888 105.6 175.15 104.468 176.096C106.065 177.097 107.609 177.918 109.101 178.561C110.586 179.13 111.489 179.768 111.808 180.477C112.174 181.291 111.952 182.323 111.141 183.572C110.594 184.466 109.94 184.984 109.179 185.124C108.495 185.294 107.637 185.167 106.606 184.742C103.348 183.261 100.227 181.252 97.2442 178.717L97.3594 180.031C97.4138 180.652 97.1306 180.99 96.5096 181.045L87.4693 181.837L79.196 182.562C78.0637 182.661 77.4479 182.145 77.3486 181.012L77.3342 180.848C74.6951 183.913 71.6588 186.646 68.2251 189.045ZM102.774 267.011C100.699 267.266 99.3363 266.631 98.6873 265.105C97.8044 263.011 98.6081 261.892 101.098 261.747C101.61 261.702 101.843 261.424 101.798 260.913L101.467 257.132C99.3827 258.971 96.8129 261.147 93.7573 263.66C93.2446 264.11 92.6714 264.289 92.0376 264.198C91.4404 264.103 90.9121 263.744 90.4526 263.122L90.3287 262.967C86.1716 264.252 80.6839 265.892 73.8655 267.888C72.9318 268.154 72.1932 268.127 71.6498 267.806C71.143 267.483 70.7534 266.818 70.4812 265.811C70.2089 264.804 70.2131 264.012 70.4938 263.436C70.7713 262.822 71.3968 262.399 72.3702 262.167C74.1011 261.758 75.7938 261.333 77.4484 260.894L76.1951 246.593L71.538 247.002C69.7116 247.162 68.7184 246.329 68.5584 244.502C68.3983 242.676 69.2314 241.683 71.0578 241.523L75.7149 241.115L75.3644 237.115L72.7892 237.341C72.1318 237.398 71.5845 237.244 71.1475 236.877C70.7105 236.511 70.4632 235.998 70.4056 235.341L70.3316 235.127C69.7285 235.805 69.0265 235.775 68.2255 235.035C67.3848 234.262 66.9014 233.366 66.7752 232.347C66.6427 231.254 66.9263 230.29 67.6261 229.456C69.7064 226.734 71.3776 223.754 72.6396 220.514C72.8742 219.831 73.3208 219.258 73.9796 218.796C74.6352 218.297 75.3648 218.012 76.1684 217.941L77.045 217.865C78.1408 217.769 79.1575 218.029 80.0949 218.646C82.7311 220.587 85.0139 222.485 86.9432 224.34C87.4328 224.886 87.6929 225.544 87.7236 226.315C87.7242 227.161 87.4793 227.937 86.989 228.643L85.573 230.754L85.6826 230.745L85.9371 233.648C86.0043 234.416 85.8213 235.057 85.3881 235.574C84.9882 236.051 84.4047 236.322 83.6376 236.39L80.9529 236.625L81.3035 240.625L85.3032 240.274C87.1295 240.114 88.1227 240.947 88.2828 242.774C88.4428 244.6 87.6097 245.593 85.7834 245.753L81.7837 246.104L82.9506 259.418C84.6385 258.938 86.3082 258.461 87.9596 257.985C89.1093 257.663 89.7901 258.082 90.0021 259.241L90.0165 259.406C91.8532 258.104 93.893 256.6 96.136 254.894C97.171 254.104 98.138 253.799 99.037 253.977C99.9726 254.153 100.727 254.786 101.302 255.877L101.376 256.091L100.093 241.462L91.6009 242.207C89.8477 242.36 88.8942 241.561 88.7405 239.807C88.5869 238.054 89.3867 237.1 91.1399 236.947L96.8381 236.447L105.221 235.713C105.252 235.231 105.295 234.455 105.348 233.383C105.376 232.865 105.397 232.477 105.412 232.218L96.426 233.005L96.4356 233.115C96.3343 233.639 96.059 234.068 95.6098 234.402C95.1939 234.696 94.7088 234.83 94.1545 234.805C91.3926 234.79 90.1642 233.793 90.4694 231.816C91.0573 227.605 91.5222 223.46 91.8641 219.382C91.9866 217.42 93.0238 216.446 94.9758 216.459C97.1468 216.452 98.1211 217.49 97.8986 219.57L97.9082 219.68L108.318 218.768C109.451 218.668 110.339 218.94 110.985 219.583C111.663 220.186 111.994 221.022 111.977 222.091C111.881 225.191 111.674 229.552 111.357 235.175L114.645 234.887C116.398 234.733 117.352 235.533 117.505 237.286C117.659 239.039 116.859 239.993 115.106 240.147L106.23 240.925L106.374 242.568C107.124 244.821 108.096 246.889 109.292 248.772C110.063 247.49 110.88 245.891 111.742 243.975C112.438 242.258 113.625 241.73 115.303 242.393C117.169 243.113 117.507 244.445 116.316 246.39C116.028 246.893 115.575 247.596 114.954 248.497C114.791 248.732 114.677 248.907 114.614 249.023C114.187 249.613 113.613 249.995 112.892 250.168C112.208 250.339 111.503 250.272 110.777 249.967L109.797 249.501C111.67 252.392 113.907 254.606 116.508 256.145C117.811 256.73 118.639 257.357 118.992 258.026C119.354 258.804 119.18 259.757 118.47 260.887C117.919 261.745 117.282 262.243 116.558 262.38C115.903 262.474 115.076 262.27 114.075 261.769C111.623 260.254 109.428 258.091 107.488 255.279L107.939 260.43C108.064 261.854 108.031 262.943 107.839 263.696C107.584 264.565 107.074 265.254 106.309 265.762C105.367 266.36 104.189 266.776 102.774 267.011ZM74.5121 258.887C72.9433 259.467 72.0154 258.959 71.7285 257.365C71.7221 257.292 71.6958 257.202 71.6497 257.095C71.4633 256.228 71.2961 255.581 71.1481 255.152C70.863 253.999 70.5955 253.047 70.3457 252.296C69.8587 250.94 70.3131 250.035 71.7089 249.582C73.0315 249.134 73.9149 249.554 74.3589 250.84C74.9477 252.518 75.4977 254.384 76.0089 256.437C76.2574 257.593 75.7585 258.41 74.5121 258.887ZM87.6935 255.579C87.4243 256.707 86.6543 257.161 85.3836 256.941C84.0334 256.654 83.4715 255.912 83.6978 254.714C83.8972 253.63 84.0915 252.067 84.2807 250.026C84.3499 249.136 84.5727 248.528 84.9488 248.2C85.3615 247.87 85.9976 247.777 86.8569 247.923C88.4595 248.15 89.0756 249.09 88.7051 250.742C88.6545 251.004 88.5602 251.399 88.4224 251.926C88.3211 252.45 88.2452 252.844 88.1945 253.106C88.1503 253.441 88.0458 253.928 87.8811 254.569C87.8099 255.017 87.7474 255.353 87.6935 255.579ZM97.3628 251.253C95.7055 252.503 94.3602 252.271 93.3267 250.558C93.2408 250.418 93.0755 250.212 92.8307 249.939C92.7481 249.836 92.6853 249.749 92.6423 249.679C92.4738 249.436 92.1861 249.094 91.7792 248.651C91.6139 248.444 91.4899 248.29 91.4073 248.186C90.1469 246.825 90.2771 245.58 91.7978 244.453C92.9757 243.614 94.1042 243.68 95.1832 244.653L95.2428 244.703C96.5827 246.132 97.5236 247.209 98.0657 247.934C98.9083 249.149 98.674 250.255 97.3628 251.253ZM74.1767 231.753L78.6147 231.364L84.3676 230.86C82.4569 228.377 80.1556 226.058 77.4637 223.901C76.3504 226.318 75.0949 228.581 73.6971 230.691C73.1402 231.476 73.3001 231.83 74.1767 231.753ZM97.0444 228.092L101.318 227.718L105.592 227.343L105.674 225.128C105.706 224.242 105.284 223.837 104.408 223.914L97.4494 224.524L97.0444 228.092ZM80.6148 324.109C78.1073 324.476 76.5162 323.75 75.8416 321.932C75.3976 320.646 75.4422 319.685 75.9754 319.049C76.4753 318.453 77.4573 318.11 78.9216 318.018C78.9581 318.015 78.9947 318.012 79.0312 318.009C79.6156 317.957 79.8806 317.621 79.8262 317L78.8274 305.604L76.903 306.325C74.8722 307.092 73.5281 306.455 72.8708 304.415C72.2134 302.374 72.8153 301.052 74.6762 300.447C74.889 300.355 75.2463 300.231 75.748 300.077C76.8214 299.725 77.6622 299.449 78.2703 299.248L77.4156 289.496L74.7857 289.726C72.7767 289.902 71.6842 288.986 71.5081 286.977C71.332 284.968 72.2485 283.875 74.2574 283.699L76.8873 283.469L76.2487 276.182C76.0694 274.136 77.0208 273.022 79.1028 272.84C81.1483 272.661 82.2607 273.594 82.4399 275.639L83.0786 282.926L86.0921 282.662C88.101 282.486 89.1935 283.403 89.3696 285.411C89.5457 287.42 88.6292 288.513 86.6203 288.689L83.6068 288.953L84.3127 297.007L86.2919 296.282C88.283 295.481 89.539 296.163 90.0598 298.326C90.5089 300.09 89.8974 301.303 88.2255 301.965C87.8698 302.106 87.3197 302.338 86.575 302.661C85.8272 302.948 85.2572 303.163 84.865 303.308L85.4412 309.883L86.0175 316.458C86.1615 318.101 86.1243 319.356 85.9057 320.222C85.6602 321.2 85.1398 321.982 84.3445 322.567C83.4492 323.271 82.206 323.785 80.6148 324.109ZM98.7274 320.368C97.6681 320.461 96.7809 320.207 96.0658 319.607C95.3507 319.008 94.9468 318.178 94.8539 317.119L93.6582 303.476C93.5654 302.417 93.8189 301.53 94.4187 300.814C95.0186 300.099 95.8482 299.695 96.9074 299.603L106.989 298.719L117.07 297.835C118.129 297.743 119.017 297.996 119.732 298.596C120.447 299.196 120.851 300.025 120.944 301.085L122.139 314.727C122.232 315.787 121.979 316.674 121.379 317.389C120.779 318.104 119.949 318.508 118.89 318.601L98.7274 320.368ZM102.163 314.214L108.135 313.691L114.107 313.168C114.984 313.091 115.384 312.614 115.307 311.737L114.736 305.217C114.659 304.341 114.182 303.941 113.306 304.018L101.361 305.065C100.485 305.141 100.085 305.618 100.162 306.495L100.733 313.015C100.81 313.891 101.287 314.291 102.163 314.214ZM96.8221 296.739C94.6663 298.179 92.9582 298.219 91.6978 296.857C90.1465 295.116 90.7019 293.263 93.364 291.3C94.929 289.838 96.0634 288.082 96.7671 286.033C97.3536 284.325 97.704 282.233 97.8182 279.757L93.1063 280.17C91.1338 280.343 90.0612 279.443 89.8883 277.471C89.7154 275.498 90.6152 274.426 92.5877 274.253L104.422 273.216L115.654 272.231C116.823 272.129 117.721 272.51 118.349 273.375C119.06 274.344 119.468 276.056 119.573 278.513C119.727 283.211 119.731 286.615 119.584 288.726C119.438 290.837 119.105 292.283 118.584 293.065C117.744 294.39 116.493 295.236 114.832 295.602C114.29 295.723 113.329 295.881 111.947 296.076C110.851 296.172 109.934 295.995 109.195 295.544C108.453 295.057 107.969 294.363 107.743 293.463C107.736 293.39 107.712 293.319 107.669 293.249C107.623 293.142 107.58 293.072 107.54 293.039C107.098 292.195 107.04 291.537 107.367 291.067C107.727 290.557 108.477 290.289 109.615 290.262C110.02 290.264 110.515 290.239 111.1 290.187C111.794 290.127 112.341 289.858 112.74 289.381C113.301 288.633 113.509 285.762 113.366 280.769C113.322 279.852 113.193 279.219 112.979 278.87C112.77 278.594 112.429 278.477 111.954 278.518L104.283 279.191C104.184 283.101 103.641 286.351 102.653 288.94C101.452 292.027 99.5079 294.626 96.8221 296.739ZM91.4601 377.927C90.4931 378.233 89.5649 378.351 88.6755 378.282C87.6399 378.225 86.8726 377.869 86.3734 377.214C85.6628 376.245 85.659 375.362 86.3621 374.565C86.9286 373.889 87.9296 373.341 89.3651 372.921C92.6788 371.674 95.014 370.181 96.3708 368.442L89.4124 369.052C88.2801 369.151 87.6643 368.635 87.5651 367.503L87.5507 367.338C87.0617 367.639 86.31 368.091 85.2956 368.695C84.9098 368.913 84.6121 369.086 84.4025 369.215C83.5214 369.66 82.6496 369.792 81.787 369.61C80.961 369.425 80.2571 368.953 79.6753 368.194L79.6157 368.144L79.5561 368.094C78.9205 367.561 78.6533 367.032 78.7546 366.508C78.8924 365.981 79.4035 365.513 80.2879 365.104C82.9409 363.877 85.246 362.461 87.2032 360.854L81.2311 361.377C79.5509 361.524 78.6371 360.758 78.4899 359.078C78.3426 357.397 79.1091 356.484 80.7893 356.336L92.1308 355.342C92.5846 354.64 92.9653 353.944 93.2729 353.255L87.52 353.759C86.4607 353.852 85.5735 353.598 84.8584 352.998C84.1433 352.399 83.7393 351.569 83.6465 350.51L82.9166 342.182C82.8237 341.122 83.0772 340.235 83.6771 339.52C84.277 338.805 85.1065 338.401 86.1658 338.308L101.178 336.992L116.191 335.677C117.25 335.584 118.137 335.837 118.852 336.437C119.567 337.037 119.971 337.867 120.064 338.926L120.794 347.254C120.887 348.313 120.633 349.2 120.034 349.916C119.434 350.631 118.604 351.035 117.545 351.127L99.9025 352.674C99.7044 353.354 99.4333 354.04 99.0892 354.733L124.347 352.519C126.028 352.372 126.941 353.138 127.089 354.818C127.236 356.499 126.469 357.412 124.789 357.56L118.105 358.145C120.302 359.278 122.57 360.165 124.908 360.807C126.444 361.114 127.425 361.598 127.851 362.26C128.284 362.995 128.093 363.969 127.279 365.181C126.759 365.963 126.158 366.457 125.477 366.664C124.832 366.868 124.037 366.827 123.092 366.542C121.533 365.979 120.178 365.417 119.024 364.856C118.985 369.865 118.487 373 117.53 374.262C116.62 375.225 115.334 375.872 113.669 376.202C113.164 376.319 112.072 376.452 110.391 376.599C109.366 376.652 108.501 376.452 107.799 375.998C107.137 375.578 106.697 374.972 106.48 374.182L106.476 374.127L106.411 374.022C105.623 372.582 106.184 371.852 108.096 371.831C108.757 371.81 109.526 371.761 110.402 371.685C111.206 371.614 111.776 371.399 112.112 371.038C112.539 370.448 112.789 369.101 112.863 366.997L103.603 367.808C102.766 370.017 101.424 371.919 99.5761 373.517C97.6253 375.197 94.92 376.667 91.4601 377.927ZM91.7986 364.15L98.4829 363.564C98.4765 363.491 98.4916 363.453 98.5281 363.45C98.6968 361.595 99.8039 360.578 101.849 360.398C102.799 360.315 103.532 360.49 104.049 360.923C104.565 361.356 104.789 362.018 104.719 362.907C104.723 362.944 104.726 362.98 104.729 363.017L114.372 362.172C112.805 361.094 111.438 359.981 110.27 358.832L102.983 359.471L95.6956 360.109C94.5722 361.57 93.2732 362.917 91.7986 364.15ZM90.75 349.666L112.94 347.722C113.817 347.645 114.216 347.168 114.14 346.291L114.063 345.415L101.845 346.486L89.6265 347.556L89.7369 348.817C89.7913 349.437 90.129 349.721 90.75 349.666ZM89.3143 343.995L113.751 341.853L113.64 340.593C113.589 340.009 113.271 339.742 112.687 339.793L101.345 340.787L90.442 341.743C89.5654 341.82 89.1655 342.297 89.2423 343.173L89.3143 343.995ZM91.9563 336.973C91.2258 337.037 90.5372 336.95 89.8906 336.712C89.0916 336.414 88.668 335.991 88.62 335.443L88.6104 335.333L79.7892 336.107C78.0725 336.257 77.1389 335.474 76.9884 333.757C76.8379 332.04 77.6211 331.107 79.3378 330.956L88.159 330.183L88.1494 330.074C88.0726 329.197 88.3056 328.496 88.8484 327.97C89.3912 327.443 90.1374 327.139 91.0871 327.056C92.0368 326.972 92.8064 327.144 93.3959 327.571C94.022 327.995 94.3734 328.645 94.4502 329.521L94.4599 329.631L106.075 328.613L106.066 328.503C105.989 327.627 106.222 326.925 106.765 326.399C107.307 325.873 108.054 325.569 109.003 325.485C109.953 325.402 110.741 325.572 111.367 325.996C111.993 326.419 112.345 327.07 112.421 327.946L112.431 328.056L121.307 327.278C123.024 327.127 123.957 327.911 124.108 329.627C124.258 331.344 123.475 332.278 121.758 332.428L112.882 333.206L112.892 333.316C112.94 333.864 112.596 334.354 111.861 334.786C111.266 335.133 110.603 335.338 109.873 335.402C109.142 335.466 108.454 335.379 107.807 335.142C107.008 334.844 106.584 334.421 106.536 333.873L106.527 333.763L100.719 334.272L94.9112 334.781L94.9208 334.891C94.9689 335.439 94.6436 335.927 93.9451 336.357C93.3498 336.703 92.6868 336.909 91.9563 336.973ZM109.245 432.187C106.981 432.385 105.749 431.352 105.551 429.087L104.35 415.39L89.1734 416.72C88.1141 416.813 87.2269 416.559 86.5118 415.96C85.7967 415.36 85.3928 414.53 85.2999 413.471L83.7681 395.993C83.6752 394.934 83.9287 394.046 84.5286 393.331C85.1285 392.616 85.958 392.212 87.0173 392.119L102.194 390.789L101.661 384.707C101.463 382.443 102.496 381.211 104.76 381.013C107.025 380.814 108.257 381.847 108.455 384.112L108.988 390.194L118.522 389.358L124.494 388.835C125.553 388.742 126.44 388.995 127.155 389.595C127.87 390.195 128.274 391.025 128.367 392.084L129.899 409.562C129.992 410.621 129.738 411.508 129.138 412.224C128.539 412.939 127.709 413.343 126.65 413.435L111.144 414.794L112.345 428.492C112.543 430.757 111.51 431.988 109.245 432.187ZM92.8852 409.935L103.788 408.979L102.756 397.2L96.6195 397.737L91.8527 398.155C90.9761 398.232 90.5762 398.709 90.653 399.585L91.455 408.735C91.5318 409.612 92.0085 410.012 92.8852 409.935ZM110.582 408.384L121.54 407.424C122.417 407.347 122.817 406.87 122.74 405.993L121.938 396.843C121.861 395.967 121.385 395.567 120.508 395.644L115.686 396.066L109.55 396.604L110.582 408.384Z" fill="white"/>
</g>
<defs>
<filter id="filter0_dd_335_238" x="0.251572" y="0.0592651" width="184.252" height="484.38" filterUnits="userSpaceOnUse" color-interpolation-filters="sRGB">
<feFlood flood-opacity="0" result="BackgroundImageFix"/>
<feColorMatrix in="SourceAlpha" type="matrix" values="0 0 0 0 0 0 0 0 0 0 0 0 0 0 0 0 0 0 127 0" result="hardAlpha"/>
<feOffset/>
<feGaussianBlur stdDeviation="25"/>
<feColorMatrix type="matrix" values="0 0 0 0 0.35 0 0 0 0 0.701095 0 0 0 0 1 0 0 0 1 0"/>
<feBlend mode="hard-light" in2="BackgroundImageFix" result="effect1_dropShadow_335_238"/>
<feColorMatrix in="SourceAlpha" type="matrix" values="0 0 0 0 0 0 0 0 0 0 0 0 0 0 0 0 0 0 127 0" result="hardAlpha"/>
<feOffset/>
<feGaussianBlur stdDeviation="25"/>
<feColorMatrix type="matrix" values="0 0 0 0 0.35 0 0 0 0 0.701095 0 0 0 0 1 0 0 0 1 0"/>
<feBlend mode="hard-light" in2="effect1_dropShadow_335_238" result="effect2_dropShadow_335_238"/>
<feBlend mode="normal" in="SourceGraphic" in2="effect2_dropShadow_335_238" result="shape"/>
</filter>
</defs>
</svg>
