<svg width="284" height="1221" viewBox="0 0 284 1221" fill="none" xmlns="http://www.w3.org/2000/svg">
<g filter="url(#filter0_dd_442_3632)">
<path d="M148.905 152.125C144.831 154.157 141.269 153.906 138.221 151.371C132.124 146.301 132.883 141.97 140.499 138.378C145.49 135.053 149.491 131.418 152.499 127.471C157.52 120.782 160.61 111.876 161.768 100.753L127.807 98.7575C126.717 98.6934 125.627 98.6294 124.537 98.5653C118.81 98.6496 116.106 95.9664 116.427 90.5158C116.747 85.0652 119.788 82.7195 125.549 83.4787C126.215 83.602 127.261 83.7055 128.686 83.7893L169.063 86.1616L209.439 88.5339C210.11 88.5734 210.781 88.6128 211.452 88.6522C217.603 88.5087 220.518 91.1623 220.198 96.6129C219.887 101.896 216.888 104.244 211.201 103.657C210.363 103.608 209.482 103.556 208.56 103.502L178.875 101.758C177.391 114.124 174.129 124.535 169.088 132.99C164.782 140.394 158.055 146.772 148.905 152.125ZM208.72 64.258C208.414 69.457 205.502 71.7681 199.982 71.1914C198.897 71.0435 197.222 70.903 194.958 70.77L145.525 67.8655C143.261 67.7325 141.54 67.6734 140.361 67.6883C137.584 67.6934 135.559 67.0696 134.286 65.8168C133.097 64.5689 132.584 62.5614 132.747 59.7941C133.067 54.3435 136.105 52.0398 141.862 52.8829C142.863 53.0258 144.328 53.154 146.257 53.2673L171.036 54.7232L195.815 56.1791C197.828 56.2974 199.382 56.3466 200.477 56.3268C206.292 56.1636 209.04 58.8074 208.72 64.258ZM123.69 274.084C119.369 276.018 115.633 275.167 112.481 271.532C107.602 265.776 108.948 261.479 116.52 258.643C124.293 255.229 131.953 250.883 139.5 245.604C146.341 240.873 152.442 235.846 157.804 230.524C162.184 226.153 166.255 221.302 170.019 215.969C173.703 210.548 176.344 205.696 177.942 201.415L136.182 198.961C134.756 198.877 132.569 198.875 129.619 198.954C126.758 198.954 124.736 198.289 123.552 196.957C122.368 195.625 121.865 193.45 122.042 190.431C122.392 184.477 125.78 181.942 132.208 182.824C133.461 182.982 135.093 183.12 137.106 183.238L158.74 184.509L180.501 185.788C183.52 185.965 186.383 185.923 189.091 185.662C190.28 185.479 191.661 185.602 193.235 186.031C194.966 186.638 196.392 187.437 197.511 188.428L198.473 189.242C199.919 190.421 200.723 191.772 200.886 193.297C201.132 194.826 200.75 196.318 199.739 197.773C199.542 198.266 199.167 198.917 198.615 199.726C198.511 200.057 198.415 200.262 198.326 200.341C192.131 212.683 185.009 223.624 176.96 233.164C186.584 242.649 195.895 253.167 204.893 264.719C206.61 267.007 207.207 269.02 206.684 270.756C206.26 272.246 204.771 273.967 202.216 275.921C199.572 277.953 197.288 278.871 195.364 278.674C193.273 278.467 191.337 277.049 189.556 274.42C182.95 265.112 174.942 255.344 165.529 245.114C152.35 257.466 138.404 267.123 123.69 274.084ZM126.037 403.847C123.354 403.689 121.307 402.728 119.896 400.962C118.564 399.285 118.102 397.112 118.512 394.443C118.936 391.523 119.222 388.805 119.369 386.29L123.53 315.474C123.678 312.958 123.707 310.309 123.618 307.527C123.49 305.416 124.008 303.764 125.172 302.57C126.42 301.381 128.092 300.848 130.188 300.971L132.704 301.119L137.987 301.43C139.245 301.503 140.229 301.94 140.939 302.739C141.65 303.538 141.886 304.52 141.65 305.684C141.009 309.433 140.587 313.026 140.385 316.464L139.321 334.577C155.056 340.298 169.833 346.593 183.649 353.463C186.096 354.785 187.435 356.336 187.667 358.117C187.914 359.646 187.322 361.841 185.892 364.702C183.115 370.429 179.036 371.83 173.655 368.906C163.458 363.426 151.664 357.937 138.272 352.438L136.224 387.28C136.096 389.46 136.057 392.277 136.107 395.73C136.2 398.428 135.532 400.492 134.102 401.923C132.667 403.437 130.691 404.12 128.175 403.973L126.037 403.847ZM120.697 535.556C116.39 535.808 113.446 534.373 111.862 531.251C109.223 526.047 111.741 523.292 119.416 522.986C144.838 521.366 163.338 516.563 174.914 508.576C176.325 507.481 177.659 506.97 178.917 507.044C180.012 507.024 181.458 507.488 183.253 508.435C188.477 511.182 188.926 514.28 184.6 517.728C177.498 522.612 168.644 526.509 158.039 529.42C146.832 532.548 134.385 534.594 120.697 535.556ZM130.255 514.661C126.511 515.367 123.795 514.324 122.108 511.532C120.485 509.08 120.135 507.167 121.057 505.79C121.886 504.577 123.913 503.728 127.139 503.245C141.912 500.999 153.294 497.755 161.285 493.513C162.503 492.827 163.697 492.561 164.866 492.713C165.699 492.846 166.851 493.293 168.321 494.052C173.209 496.78 173.471 499.488 169.106 502.176C163.892 504.983 158.326 507.349 152.407 509.273C144.949 511.612 137.565 513.408 130.255 514.661ZM106.873 500.161C102.37 502.336 98.744 501.745 95.9963 498.386C91.9857 493.606 93.3444 489.815 100.072 487.013C108.226 482.864 115.346 477.687 121.432 471.481L102.187 470.351C97.9945 470.104 96.0213 467.885 96.2677 463.692C96.514 459.499 98.7336 457.526 102.926 457.772L131.102 459.428C132.493 457.237 133.908 454.628 135.348 451.599C133.834 451.594 131.607 451.548 128.667 451.459C119.172 451.238 112.365 451.09 108.246 451.017C104.551 450.884 102.576 448.706 102.319 444.484C101.924 439.748 103.951 437.469 108.4 437.647C109.998 437.656 112.475 437.76 115.829 437.957C119.02 438.06 121.455 438.161 123.132 438.26C126.407 434.077 129.351 429.79 131.965 425.4C134.234 421.157 137.679 419.803 142.301 421.337C148.497 423.3 149.461 426.933 145.195 432.235C143.927 433.76 142.031 435.962 139.506 438.843C143.457 438.907 149.504 439.094 157.648 439.404C164.874 439.576 170.335 439.729 174.029 439.862C173.793 439.596 173.435 439.238 172.956 438.789C172.562 438.345 172.244 438.032 172.002 437.849C167.769 433.983 168.169 430.766 173.2 428.201C176.154 426.608 178.872 426.894 181.354 429.059C189.444 436.013 196.291 442.642 201.894 448.946C203.542 450.978 204.112 452.737 203.604 454.221C203.19 455.543 201.725 456.846 199.209 458.128C195.214 460.25 191.887 459.591 189.228 456.153C188.601 455.359 187.578 454.163 186.157 452.565C171.695 452.388 160.179 452.175 151.611 451.924C150.344 454.878 148.916 457.698 147.328 460.381L178.27 462.199L202.924 463.648C207.117 463.894 209.09 466.114 208.844 470.306C208.597 474.499 206.378 476.472 202.185 476.226L181.556 475.014C187.215 481.825 193.775 487.596 201.239 492.326C204.174 493.929 205.928 495.589 206.5 497.305C206.978 499.185 206.14 501.281 203.985 503.595C202.456 505.272 200.887 506.189 199.279 506.347C197.671 506.505 195.853 505.936 193.826 504.639C181.849 496.53 172.183 486.328 164.827 474.031L139.545 472.545C135.269 478.016 131.31 482.369 127.67 485.605C137.121 483.721 144.786 481.436 150.666 478.752C152.659 477.776 154.878 477.948 157.325 479.27C162.381 482.007 162.561 484.668 157.866 487.253C150.432 490.603 142.119 493.186 132.924 495.002C131.306 495.327 129.674 495.189 128.026 494.588C126.384 493.902 125.054 492.899 124.038 491.577C123.564 491.044 123.091 490.511 122.617 489.979C117.414 494.048 112.165 497.442 106.873 500.161ZM92.0413 658.071C90.5269 658.066 88.7832 656.954 86.81 654.734C84.9995 652.608 84.0992 650.746 84.109 649.148C84.1187 647.55 85.0287 645.668 86.8388 643.502C92.0521 636.404 96.0396 627.256 98.8011 616.059C101.099 607.022 102.884 595.262 104.156 580.78L96.9859 580.359C92.1223 580.073 89.8334 577.498 90.1191 572.635C90.4049 567.771 92.9796 565.482 97.8432 565.768L105.139 566.197C105.39 563.35 105.693 558.909 106.048 552.871C106.338 547.924 108.916 545.593 113.779 545.878C118.643 546.164 120.929 548.781 120.639 553.728C120.289 559.682 119.986 564.124 119.729 567.054L133.188 567.845L140.358 568.266C142.454 568.389 143.914 569.316 144.738 571.048C145.71 573.124 146.014 576.55 145.649 581.325C143.53 607.369 141.859 625.068 140.636 634.42C139.187 644.769 137.505 651.191 135.591 653.687C134.131 655.621 132.617 657.047 131.049 657.964C129.746 658.645 127.949 659.171 125.655 659.541C123.534 659.837 121.174 659.909 118.574 659.756C113.217 659.273 110.109 657.029 109.251 653.023C108.526 649.615 108.955 647.326 110.538 646.157C111.949 645.062 114.536 644.709 118.299 645.098C118.551 645.113 118.802 645.128 119.054 645.143C120.815 645.246 122.243 644.573 123.338 643.123C124.522 641.593 125.69 636.74 126.844 628.561C127.815 620.624 129.065 607.235 130.593 588.392C130.814 586.049 130.701 584.401 130.252 583.449C129.877 582.67 129.144 582.248 128.054 582.184L118.495 581.623C116.844 598.27 114.61 611.939 111.794 622.628C108.337 635.636 103.546 646.293 97.4201 654.6C95.4324 656.924 93.6395 658.08 92.0413 658.071ZM156.701 653.161C154.269 653.018 152.343 652.147 150.922 650.549C149.501 648.951 148.862 646.936 149.005 644.504L153.439 569.035C153.582 566.603 154.453 564.677 156.051 563.256C157.649 561.835 159.664 561.196 162.096 561.339L176.561 562.189L191.026 563.039C193.458 563.182 195.384 564.052 196.804 565.65C198.225 567.248 198.864 569.263 198.721 571.695L194.287 647.165C194.144 649.597 193.274 651.523 191.676 652.944C190.077 654.364 188.063 655.003 185.631 654.861L156.701 653.161ZM166.733 639.235L176.795 639.826C178.808 639.945 179.873 638.997 179.991 636.985L183.339 580.005C183.458 577.993 182.51 576.927 180.498 576.809L170.435 576.218C168.423 576.1 167.357 577.047 167.239 579.059L165.561 607.612L163.891 636.039C163.773 638.052 164.72 639.117 166.733 639.235ZM110.251 784.222C107.82 784.079 105.893 783.209 104.473 781.61C103.052 780.012 102.413 777.997 102.556 775.566L104.27 746.384C99.8755 748.145 95.488 749.781 91.1079 751.29C86.7377 752.632 83.4377 751.513 81.2079 747.932C79.5158 745.224 79.0964 743.054 79.9496 741.421C80.7141 739.867 82.7216 738.639 85.9721 737.736C100.281 733.36 113.565 727.829 125.822 721.145L103.307 719.822L87.2065 718.876C82.9298 718.624 80.9196 716.319 81.1758 711.958C81.4271 707.681 83.6911 705.669 87.9677 705.92L122.181 707.93L122.801 697.364L100.161 696.034C95.8839 695.783 93.8737 693.477 94.1299 689.117C94.3812 684.84 96.6451 682.827 100.922 683.079L123.563 684.409L123.925 678.245C124.211 673.382 126.827 671.095 131.775 671.386C136.638 671.672 138.927 674.247 138.641 679.11L138.279 685.274L159.537 686.522C161.298 686.626 162.649 687.252 163.591 688.402C164.622 689.472 165.086 690.888 164.983 692.648L164.961 693.026C167.718 690.495 170.904 687.106 174.519 682.859C177.326 679.49 180.599 678.925 184.338 681.164C188.896 683.788 189.458 687.103 186.025 691.108C179.988 697.906 173.298 704.37 165.953 710.502L188.217 711.81C192.493 712.062 194.506 714.325 194.255 718.602C193.999 722.963 191.732 725.017 187.456 724.766L159.154 723.103C163.342 724.864 167.143 726.77 170.557 728.822C171.691 729.561 172.266 730.521 172.281 731.7C172.296 732.879 171.724 734.023 170.564 735.133L170.298 735.37L174.7 735.628C177.048 735.766 178.153 737.009 178.015 739.357L175.636 779.859C175.493 782.291 174.622 784.218 173.024 785.638C171.426 787.059 169.411 787.698 166.979 787.555L110.251 784.222ZM120.417 772.324L157.271 774.489C159.284 774.607 160.349 773.66 160.467 771.648L160.778 766.365L139.269 765.101L117.886 763.845L117.575 769.127C117.457 771.14 118.404 772.205 120.417 772.324ZM118.551 752.524L139.934 753.78L161.443 755.044L161.724 750.265C161.842 748.252 160.895 747.187 158.882 747.068L119.009 744.726L118.551 752.524ZM132.437 733.145L146.902 733.995L161.493 734.852C159.54 733.728 157.34 732.505 154.893 731.183C153.009 730.315 151.938 729.2 151.682 727.839C151.509 726.482 152.18 725.091 153.694 723.666L154.626 722.837L149.846 722.556C144.588 726.118 138.785 729.648 132.437 733.145ZM136.897 708.795L145.073 709.275C150.163 705.704 154.395 702.418 157.769 699.419L147.581 698.82L137.518 698.229L136.897 708.795ZM96.054 912.003C93.7603 912.373 91.6171 912.331 89.6243 911.878C87.296 911.404 85.6756 910.342 84.7629 908.689C83.4753 906.257 83.7613 904.255 85.6208 902.681C87.1301 901.339 89.5815 900.432 92.9752 899.958C100.902 898.236 106.693 895.631 110.347 892.143L94.373 891.205C91.7735 891.052 90.5501 889.676 90.7028 887.076L90.725 886.699C89.5165 887.217 87.6619 887.992 85.1611 889.023C84.2141 889.388 83.4816 889.681 82.9637 889.903C80.818 890.619 78.7981 890.626 76.9039 889.926C75.0936 889.231 73.6556 887.926 72.5901 886.012L72.4717 885.879L72.3533 885.746C71.0904 884.325 70.6612 883.038 71.0656 881.884C71.5538 880.734 72.8683 879.844 75.0091 879.212C81.4312 877.318 87.1283 874.876 92.1002 871.886L78.3898 871.081C74.5325 870.854 72.7171 868.812 72.9438 864.955C73.1704 861.097 75.2124 859.282 79.0698 859.509L105.107 861.038C106.37 859.598 107.464 858.148 108.392 856.688L95.1845 855.912C92.7527 855.769 90.8264 854.898 89.4057 853.3C87.985 851.702 87.3461 849.687 87.489 847.255L88.6123 828.136C88.7552 825.704 89.6257 823.778 91.2237 822.358C92.8218 820.937 94.8368 820.298 97.2686 820.441L131.733 822.466L166.198 824.491C168.63 824.634 170.556 825.504 171.976 827.102C173.397 828.7 174.036 830.715 173.893 833.147L172.77 852.266C172.627 854.698 171.757 856.624 170.158 858.045C168.56 859.466 166.545 860.104 164.114 859.962L123.611 857.582C122.936 859.057 122.092 860.522 121.081 861.977L179.067 865.384C182.925 865.611 184.74 867.653 184.513 871.51C184.287 875.367 182.245 877.183 178.387 876.956L163.042 876.054C167.644 879.354 172.488 882.121 177.574 884.355C180.953 885.563 183.015 886.989 183.76 888.631C184.495 890.441 183.738 892.585 181.489 895.061C180.049 896.659 178.522 897.579 176.909 897.821C175.38 898.068 173.592 897.71 171.545 896.749C168.2 894.953 165.315 893.227 162.888 891.57C161.127 902.91 158.953 909.851 156.363 912.391C153.981 914.271 150.849 915.307 146.967 915.499C145.783 915.598 143.262 915.534 139.405 915.308C137.062 915.086 135.17 914.344 133.73 913.081C132.368 911.907 131.574 910.388 131.347 908.523L131.354 908.397L131.243 908.139C129.936 904.612 131.453 903.144 135.793 903.736C137.298 903.908 139.056 904.054 141.069 904.172C142.914 904.28 144.277 903.982 145.16 903.276C146.324 902.083 147.34 899.113 148.208 894.368L126.951 893.119C124.317 897.845 120.64 901.71 115.92 904.714C110.938 907.871 104.316 910.301 96.054 912.003ZM101.416 880.89L116.762 881.792C116.772 881.624 116.818 881.543 116.902 881.548C117.903 877.399 120.752 875.463 125.448 875.739C127.628 875.867 129.231 876.508 130.257 877.662C131.283 878.816 131.569 880.39 131.116 882.383C131.111 882.467 131.106 882.55 131.101 882.634L153.239 883.935C150.047 880.971 147.319 877.992 145.055 874.998L128.326 874.015L111.597 873.032C108.563 875.967 105.17 878.586 101.416 880.89ZM103.87 847.713L154.812 850.706C156.825 850.824 157.89 849.877 158.009 847.865L158.127 845.852L130.077 844.204L102.028 842.556L101.858 845.449C101.774 846.875 102.445 847.629 103.87 847.713ZM102.508 834.38L158.607 837.676L158.777 834.783C158.856 833.442 158.225 832.731 156.883 832.652L130.846 831.123L105.815 829.652C103.802 829.534 102.737 830.481 102.619 832.493L102.508 834.38ZM110.838 819.345C109.161 819.246 107.63 818.82 106.243 818.065C104.532 817.123 103.713 816.023 103.787 814.765L103.801 814.514L83.5504 813.324C79.6092 813.092 77.7544 811.006 77.9859 807.065C78.2175 803.124 80.3039 801.269 84.2451 801.5L104.496 802.69L104.511 802.439C104.629 800.426 105.391 798.914 106.797 797.903C108.203 796.892 109.996 796.45 112.176 796.578C114.356 796.706 116.043 797.352 117.237 798.516C118.515 799.685 119.094 801.276 118.976 803.288L118.961 803.54L145.627 805.107L145.642 804.855C145.76 802.843 146.522 801.331 147.928 800.32C149.334 799.308 151.127 798.867 153.307 798.995C155.487 799.123 157.216 799.771 158.494 800.94C159.771 802.109 160.351 803.7 160.233 805.713L160.218 805.964L180.595 807.161C184.536 807.393 186.391 809.479 186.159 813.42C185.928 817.362 183.841 819.217 179.9 818.985L159.523 817.788L159.509 818.039C159.435 819.297 158.493 820.294 156.682 821.029C155.217 821.616 153.646 821.86 151.969 821.761C150.292 821.663 148.761 821.236 147.374 820.482C145.663 819.54 144.844 818.44 144.918 817.182L144.933 816.93L131.6 816.147L118.267 815.364L118.252 815.615C118.178 816.873 117.278 817.872 115.551 818.612C114.086 819.199 112.515 819.443 110.838 819.345ZM118.274 1040.79C113.411 1040.5 111.119 1037.97 111.4 1033.19L112.243 1018.85C100.612 1026.33 87.8295 1031.93 73.895 1035.66C69.9687 1036.6 66.9227 1035.46 64.7571 1032.22C62.8184 1029.41 62.3175 1027.19 63.2546 1025.56C64.0191 1024.01 66.1894 1022.88 69.7655 1022.16C81.1055 1019.63 91.671 1015.96 101.462 1011.15L70.142 1009.31C66.2008 1009.08 64.3484 1006.95 64.5849 1002.92C64.8165 998.983 66.9029 997.128 70.8441 997.359L113.359 999.857L113.647 994.952L87.4841 993.415C85.0523 993.272 83.126 992.401 81.7053 990.803C80.2846 989.205 79.6457 987.19 79.7886 984.758L81.3036 958.973C80.8597 959.367 80.4158 959.762 79.9719 960.157C77.9447 961.721 76.132 962.498 74.5338 962.488C72.7679 962.468 71.0537 961.568 69.3913 959.788C65.8346 955.876 66.6877 952.098 71.9506 948.452C80.1679 941.783 87.0411 934.361 92.57 926.187C93.6008 924.397 94.8857 923.294 96.4247 922.88C97.7959 922.455 99.5593 922.517 101.715 923.064C107.772 924.514 109.008 927.826 105.423 933.001C105.235 933.326 104.912 933.812 104.453 934.458C104 935.021 103.637 935.462 103.366 935.783L120.975 936.818C121.819 935.353 123 933.15 124.519 930.21C126.378 925.776 129.639 923.99 134.3 924.853C137.714 925.474 139.665 926.64 140.153 928.352C140.73 929.985 140.047 932.3 138.104 935.3C137.364 936.434 136.812 937.243 136.447 937.727L167.892 939.574C171.75 939.801 173.565 941.843 173.339 945.7C173.112 949.558 171.07 951.373 167.213 951.146L133.88 949.188L133.577 954.345L161.752 956C165.023 956.193 166.562 957.924 166.37 961.194C166.178 964.465 164.446 966.004 161.176 965.811L133.001 964.156L132.69 969.439L160.991 971.102C164.262 971.294 165.801 973.025 165.609 976.296C165.417 979.566 163.685 981.105 160.415 980.913L132.114 979.25L131.796 984.659L168.902 986.839C172.675 987.061 174.451 989.058 174.23 992.832C174.008 996.605 172.01 998.381 168.237 998.159L128.112 995.802L127.824 1000.71L152.352 1002.15L170.967 1003.24C174.909 1003.47 176.763 1005.56 176.532 1009.5C176.295 1013.53 174.207 1015.42 170.265 1015.19L139.197 1013.37C147.948 1019.1 157.596 1023.87 168.143 1027.69C171.527 1028.81 173.593 1030.15 174.343 1031.71C175.088 1033.36 174.334 1035.46 172.08 1038.02C169.549 1040.98 166.351 1041.72 162.483 1040.23C149.249 1034.91 137.333 1027.9 126.737 1019.2L125.865 1034.04C125.584 1038.82 123.054 1041.07 118.274 1040.79ZM96.3251 982.575L117.582 983.824L117.9 978.415L106.077 977.72L94.3788 977.033L94.1941 980.177C94.1054 981.687 94.8157 982.486 96.3251 982.575ZM94.9553 967.222L106.653 967.909L118.477 968.604L118.787 963.321L95.2657 961.939L94.9553 967.222ZM95.8421 952.128L107.54 952.815L119.364 953.51L119.667 948.353L96.1451 946.971L95.8421 952.128ZM110.877 1166.7C105.678 1166.39 103.231 1163.64 103.536 1158.44L105.384 1126.99L70.542 1124.95C68.1102 1124.8 66.1839 1123.93 64.7632 1122.34C63.3425 1120.74 62.7036 1118.72 62.8465 1116.29L65.204 1076.17C65.3469 1073.73 66.2174 1071.81 67.8154 1070.39C69.4135 1068.97 71.4285 1068.33 73.8603 1068.47L108.702 1070.52L109.523 1056.56C109.828 1051.36 112.58 1048.91 117.779 1049.22C122.978 1049.52 125.425 1052.27 125.12 1057.47L124.299 1071.43L146.186 1072.72L159.896 1073.53C162.328 1073.67 164.254 1074.54 165.675 1076.14C167.095 1077.74 167.734 1079.75 167.591 1082.18L165.234 1122.31C165.091 1124.74 164.221 1126.66 162.622 1128.09C161.024 1129.51 159.009 1130.15 156.578 1130L120.981 1127.91L119.133 1159.36C118.828 1164.56 116.076 1167 110.877 1166.7ZM81.2177 1110.81L106.249 1112.28L107.838 1085.23L93.7498 1084.41L82.8067 1083.76C80.7941 1083.65 79.7288 1084.59 79.6105 1086.61L78.3763 1107.61C78.2581 1109.62 79.2052 1110.69 81.2177 1110.81ZM121.846 1113.19L147.002 1114.67C149.015 1114.79 150.08 1113.84 150.198 1111.83L151.433 1090.83C151.551 1088.81 150.604 1087.75 148.591 1087.63L137.522 1086.98L123.435 1086.15L121.846 1113.19Z" fill="white"/>
</g>
<defs>
<filter id="filter0_dd_442_3632" x="0.500977" y="0.598145" width="283.353" height="1219.48" filterUnits="userSpaceOnUse" color-interpolation-filters="sRGB">
<feFlood flood-opacity="0" result="BackgroundImageFix"/>
<feColorMatrix in="SourceAlpha" type="matrix" values="0 0 0 0 0 0 0 0 0 0 0 0 0 0 0 0 0 0 127 0" result="hardAlpha"/>
<feOffset/>
<feGaussianBlur stdDeviation="25"/>
<feColorMatrix type="matrix" values="0 0 0 0 0.35 0 0 0 0 0.701095 0 0 0 0 1 0 0 0 1 0"/>
<feBlend mode="hard-light" in2="BackgroundImageFix" result="effect1_dropShadow_442_3632"/>
<feColorMatrix in="SourceAlpha" type="matrix" values="0 0 0 0 0 0 0 0 0 0 0 0 0 0 0 0 0 0 127 0" result="hardAlpha"/>
<feOffset/>
<feGaussianBlur stdDeviation="25"/>
<feColorMatrix type="matrix" values="0 0 0 0 0.35 0 0 0 0 0.701095 0 0 0 0 1 0 0 0 1 0"/>
<feBlend mode="hard-light" in2="effect1_dropShadow_442_3632" result="effect2_dropShadow_442_3632"/>
<feBlend mode="normal" in="SourceGraphic" in2="effect2_dropShadow_442_3632" result="shape"/>
</filter>
</defs>
</svg>
