<svg width="42" height="42" viewBox="0 0 42 42" fill="none" xmlns="http://www.w3.org/2000/svg">
<g clip-path="url(#clip0_1400_989)">
<path d="M42 21C42 32.598 32.598 42 21 42C9.40202 42 0 32.598 0 21C0 9.40202 9.40202 0 21 0C32.598 0 42 9.40202 42 21Z" fill="white"/>
<path d="M40 21C40 31.4934 31.4934 40 21 40C10.5066 40 2 31.4934 2 21C2 10.5066 10.5066 2 21 2C31.4934 2 40 10.5066 40 21Z" stroke="#5B89BB" stroke-width="4"/>
<path d="M16.7236 27.491L15.391 30.1563C13.6936 29.449 11.9359 28.7417 10.0673 27.5243C9.41562 27.0997 9.0205 26.3783 9.00484 25.6007C8.92355 21.6089 9.86004 17.5957 12.2313 13.3527C12.5416 12.7974 13.0586 12.3902 13.6583 12.1774C15.0889 11.6696 16.06 11.2772 17.7231 11L18.7226 12.8323C18.7226 12.8323 19.722 12.4992 21.3878 12.4992C23.0535 12.4992 24.053 12.8323 24.053 12.8323L25.0524 11C26.7155 11.2772 27.6867 11.6696 29.1172 12.1774C29.7169 12.3902 30.234 12.7974 30.5443 13.3527C32.9155 17.5957 33.852 21.6089 33.7709 25.6007C33.7551 26.3783 33.3599 27.0997 32.7083 27.5243C30.8396 28.7417 29.0821 29.449 27.3845 30.1563L26.0519 27.491M14.7247 26.1584C14.7247 26.1584 18.0563 27.8242 21.3878 27.8242C24.7193 27.8242 28.0508 26.1584 28.0508 26.1584" stroke="#5B89BB" stroke-width="2.5" stroke-linecap="round" stroke-linejoin="round"/>
<path d="M19.3888 21.3277C19.3888 22.7077 18.4193 23.8264 17.2234 23.8264C16.0274 23.8264 15.0579 22.7077 15.0579 21.3277C15.0579 19.9478 16.0274 18.8291 17.2234 18.8291C18.4193 18.8291 19.3888 19.9478 19.3888 21.3277Z" fill="#5B89BB"/>
<path d="M27.7176 21.3277C27.7176 22.7077 26.7481 23.8264 25.5522 23.8264C24.3562 23.8264 23.3867 22.7077 23.3867 21.3277C23.3867 19.9478 24.3562 18.8291 25.5522 18.8291C26.7481 18.8291 27.7176 19.9478 27.7176 21.3277Z" fill="#5B89BB"/>
</g>
<defs>
<clipPath id="clip0_1400_989">
<rect width="42" height="42" fill="white"/>
</clipPath>
</defs>
</svg>
