<svg width="64" height="64" viewBox="0 0 64 64" fill="none" xmlns="http://www.w3.org/2000/svg">
<g clip-path="url(#clip0_1_439)">
<path d="M64 32C64 49.6731 49.6731 64 32 64C14.3269 64 0 49.6731 0 32C0 14.3269 14.3269 0 32 0C49.6731 0 64 14.3269 64 32Z" fill="#D6E8FF"/>
<path d="M61 32C61 48.0163 48.0163 61 32 61C15.9837 61 3 48.0163 3 32C3 15.9837 15.9837 3 32 3C48.0163 3 61 15.9837 61 32Z" stroke="#537FB6" stroke-width="6"/>
<path d="M25.4837 41.8909L23.4531 45.9522C20.8665 44.8744 18.1881 43.7967 15.3407 41.9417C14.3477 41.2947 13.7456 40.1953 13.7217 39.0104C13.5979 32.9277 15.0249 26.8124 18.6382 20.3468C19.1111 19.5005 19.8989 18.8802 20.8127 18.5558C22.9926 17.7821 24.4725 17.1841 27.0067 16.7617L28.5297 19.5539C28.5297 19.5539 30.0527 19.0462 32.591 19.0462C35.1293 19.0462 36.6522 19.5539 36.6522 19.5539L38.1752 16.7617C40.7095 17.1841 42.1893 17.7821 44.3692 18.5558C45.283 18.8802 46.0709 19.5005 46.5438 20.3468C50.157 26.8124 51.5841 32.9277 51.4605 39.0104C51.4363 40.1953 50.8343 41.2947 49.8413 41.9417C46.9938 43.7967 44.3156 44.8744 41.7289 45.9522L39.6982 41.8909M22.4378 39.8603C22.4378 39.8603 27.5144 42.3986 32.591 42.3986C37.6676 42.3986 42.7442 39.8603 42.7442 39.8603" stroke="#537FB6" stroke-width="2.5" stroke-linecap="round" stroke-linejoin="round"/>
<path d="M29.5449 32.4993C29.5449 34.6021 28.0675 36.3068 26.2451 36.3068C24.4227 36.3068 22.9453 34.6021 22.9453 32.4993C22.9453 30.3965 24.4227 28.6919 26.2451 28.6919C28.0675 28.6919 29.5449 30.3965 29.5449 32.4993Z" fill="#537FB6"/>
<path d="M42.2364 32.4993C42.2364 34.6021 40.759 36.3068 38.9366 36.3068C37.1142 36.3068 35.6368 34.6021 35.6368 32.4993C35.6368 30.3965 37.1142 28.6919 38.9366 28.6919C40.759 28.6919 42.2364 30.3965 42.2364 32.4993Z" fill="#537FB6"/>
</g>
<defs>
<clipPath id="clip0_1_439">
<rect width="64" height="64" fill="white"/>
</clipPath>
</defs>
</svg>
