<svg width="64" height="64" viewBox="0 0 64 64" fill="none" xmlns="http://www.w3.org/2000/svg">
<g clip-path="url(#clip0_1_432)">
<circle cx="32" cy="32" r="32" fill="#D6E8FF"/>
<path fill-rule="evenodd" clip-rule="evenodd" d="M32 0C25.671 0 19.4841 1.87677 14.2218 5.39297C8.95939 8.90918 4.85787 13.9069 2.43587 19.7541C0.0138648 25.6014 -0.619841 32.0355 0.614885 38.2429C1.84961 44.4503 4.89732 50.1521 9.37259 54.6274C13.8479 59.1027 19.5497 62.1504 25.7571 63.3851C31.9645 64.6198 38.3986 63.9861 44.2459 61.5641C50.0931 59.1421 55.0908 55.0406 58.607 49.7782C62.1232 44.5159 64 38.329 64 32C64 23.5131 60.6286 15.3737 54.6274 9.37258C48.6263 3.37142 40.4869 0 32 0ZM17.5762 10.4132C21.8456 7.56039 26.8652 6.03773 32 6.03773C38.8856 6.03773 45.4892 8.77304 50.3581 13.6419C55.227 18.5108 57.9623 25.1144 57.9623 32C57.9623 37.1348 56.4396 42.1544 53.5868 46.4238C50.7341 50.6933 46.6793 54.021 41.9353 55.986C39.7118 56.907 37.3836 57.5093 35.0189 57.7861V41.4591H41.6604C43.3277 41.4591 44.6793 40.1075 44.6793 38.4402C44.6793 36.773 43.3277 35.4214 41.6604 35.4214H35.0189V28.7799C35.0189 27.8725 35.3793 27.0022 36.021 26.3606C36.6626 25.719 37.5328 25.3585 38.4402 25.3585H44.8805C46.5478 25.3585 47.8994 24.0069 47.8994 22.3396C47.8994 20.6723 46.5478 19.3207 44.8805 19.3207H38.4402C35.9315 19.3207 33.5256 20.3173 31.7516 22.0913C29.9777 23.8652 28.9811 26.2712 28.9811 28.7799V35.4214H22.3396C20.6724 35.4214 19.3208 36.773 19.3208 38.4402C19.3208 40.1075 20.6724 41.4591 22.3396 41.4591H28.9811V57.7862C28.2968 57.706 27.6143 57.5985 26.935 57.4634C21.8988 56.4616 17.2728 53.989 13.6419 50.3581C10.011 46.7272 7.53837 42.1012 6.53661 37.065C5.53485 32.0288 6.04899 26.8086 8.01401 22.0647C9.97903 17.3207 13.3067 13.2659 17.5762 10.4132Z" fill="#537FB6"/>
</g>
<defs>
<clipPath id="clip0_1_432">
<rect width="64" height="64" fill="white"/>
</clipPath>
</defs>
</svg>
