<svg width="42" height="42" viewBox="0 0 42 42" fill="none" xmlns="http://www.w3.org/2000/svg">
<g clip-path="url(#clip0_1400_982)">
<circle cx="21" cy="21" r="21" fill="white"/>
<path fill-rule="evenodd" clip-rule="evenodd" d="M21 0C16.8466 0 12.7865 1.23163 9.33303 3.53914C5.8796 5.84665 3.18798 9.1264 1.59854 12.9636C0.00909875 16.8009 -0.406771 21.0233 0.403518 25.0969C1.21381 29.1705 3.21386 32.9123 6.15076 35.8492C9.08767 38.7861 12.8295 40.7862 16.9031 41.5965C20.9767 42.4068 25.1991 41.9909 29.0364 40.4015C32.8736 38.812 36.1534 36.1204 38.4609 32.667C40.7684 29.2135 42 25.1534 42 21C42 15.4304 39.7875 10.089 35.8492 6.15076C31.911 2.21249 26.5695 0 21 0ZM11.5343 6.83364C14.3362 4.96151 17.6303 3.96226 21 3.96226C25.5187 3.96226 29.8523 5.7573 33.0475 8.9525C36.2427 12.1477 38.0377 16.4813 38.0377 21C38.0377 24.3697 37.0385 27.6638 35.1664 30.4656C33.2942 33.2675 30.6333 35.4513 27.5201 36.7408C26.0609 37.3452 24.533 37.7405 22.9811 37.9222V27.2075H27.3396C28.4338 27.2075 29.3208 26.3206 29.3208 25.2264C29.3208 24.1323 28.4338 23.2453 27.3396 23.2453H22.9811V18.8868C22.9811 18.2913 23.2177 17.7202 23.6388 17.2991C24.0598 16.8781 24.6309 16.6415 25.2264 16.6415H29.4528C30.547 16.6415 31.434 15.7545 31.434 14.6604C31.434 13.5662 30.547 12.6792 29.4528 12.6792H25.2264C23.5801 12.6792 22.0012 13.3333 20.837 14.4974C19.6729 15.6615 19.0189 17.2404 19.0189 18.8868V23.2453H14.6604C13.5662 23.2453 12.6793 24.1323 12.6793 25.2264C12.6793 26.3206 13.5662 27.2075 14.6604 27.2075H19.0189V37.9222C18.5698 37.8696 18.1219 37.799 17.6761 37.7104C14.3711 37.0529 11.3353 35.4303 8.95251 33.0475C6.56974 30.6647 4.94705 27.6289 4.28965 24.3239C3.63224 21.0189 3.96965 17.5932 5.25919 14.4799C6.54874 11.3667 8.73251 8.70577 11.5343 6.83364Z" fill="#5B89BB"/>
</g>
<defs>
<clipPath id="clip0_1400_982">
<rect width="42" height="42" fill="white"/>
</clipPath>
</defs>
</svg>
