<svg width="42" height="42" viewBox="0 0 42 42" fill="none" xmlns="http://www.w3.org/2000/svg">
<g clip-path="url(#clip0_1400_985)">
<circle cx="21" cy="21" r="21" fill="white"/>
<path d="M29.5329 15.3114C31.1038 15.3114 32.3772 14.0379 32.3772 12.4671C32.3772 10.8962 31.1038 9.62275 29.5329 9.62275C27.9621 9.62275 26.6886 10.8962 26.6886 12.4671C26.6886 14.0379 27.9621 15.3114 29.5329 15.3114Z" fill="#5B89BB"/>
<path fill-rule="evenodd" clip-rule="evenodd" d="M13.4152 21C13.4152 16.811 16.811 13.4152 21 13.4152C25.189 13.4152 28.5848 16.811 28.5848 21C28.5848 25.189 25.189 28.5848 21 28.5848C16.811 28.5848 13.4152 25.189 13.4152 21ZM21 17.2076C18.9055 17.2076 17.2076 18.9055 17.2076 21C17.2076 23.0945 18.9055 24.7924 21 24.7924C23.0945 24.7924 24.7924 23.0945 24.7924 21C24.7924 18.9055 23.0945 17.2076 21 17.2076Z" fill="#5B89BB"/>
<path fill-rule="evenodd" clip-rule="evenodd" d="M42 21C42 32.598 32.598 42 21 42C9.40202 42 0 32.598 0 21C0 9.40202 9.40202 0 21 0C32.598 0 42 9.40202 42 21ZM21 37.7245C30.2367 37.7245 37.7245 30.2367 37.7245 21C37.7245 11.7633 30.2367 4.27545 21 4.27545C11.7633 4.27545 4.27545 11.7633 4.27545 21C4.27545 30.2367 11.7633 37.7245 21 37.7245Z" fill="#5B89BB"/>
<path d="M32.3771 12.4671C32.3771 14.038 31.1037 15.3114 29.5328 15.3114C27.9619 15.3114 26.6885 14.038 26.6885 12.4671C26.6885 10.8962 27.9619 9.6228 29.5328 9.6228C31.1037 9.6228 32.3771 10.8962 32.3771 12.4671Z" fill="#9AC2FF"/>
<path fill-rule="evenodd" clip-rule="evenodd" d="M20.9999 13.4152C16.8109 13.4152 13.415 16.8111 13.415 21C13.415 25.189 16.8109 28.5849 20.9999 28.5849C21.2617 28.5849 21.5204 28.5716 21.7754 28.5457C22.0323 28.5196 22.2855 28.4807 22.5343 28.4296C25.0004 27.9229 27.0299 26.2192 27.9886 23.9524C28.3725 23.045 28.5847 22.0473 28.5847 21C28.5847 16.8111 25.1889 13.4152 20.9999 13.4152ZM17.2075 21C17.2075 18.9056 18.9054 17.2076 20.9999 17.2076C23.0944 17.2076 24.7923 18.9056 24.7923 21C24.7923 23.0945 23.0944 24.7925 20.9999 24.7925C18.9054 24.7925 17.2075 23.0945 17.2075 21Z" fill="#9AC2FF"/>
<path d="M41.9999 21.0001C41.9999 32.598 32.5979 42.0001 20.9999 42.0001V37.7246C30.2366 37.7246 37.7244 30.2368 37.7244 21.0001H41.9999Z" fill="#9AC2FF"/>
</g>
<defs>
<clipPath id="clip0_1400_985">
<rect width="42" height="42" fill="white"/>
</clipPath>
</defs>
</svg>
