<svg width="64" height="64" viewBox="0 0 64 64" fill="none" xmlns="http://www.w3.org/2000/svg">
<g clip-path="url(#clip0_1_435)">
<circle cx="32" cy="32" r="32" fill="#D6E8FF"/>
<path d="M45.0026 23.3316C47.3963 23.3316 49.3368 21.3911 49.3368 18.9974C49.3368 16.6037 47.3963 14.6632 45.0026 14.6632C42.6089 14.6632 40.6684 16.6037 40.6684 18.9974C40.6684 21.3911 42.6089 23.3316 45.0026 23.3316Z" fill="#537FB6"/>
<path fill-rule="evenodd" clip-rule="evenodd" d="M20.4422 32C20.4422 25.6168 25.6168 20.4422 32 20.4422C38.3832 20.4422 43.5578 25.6168 43.5578 32C43.5578 38.3832 38.3832 43.5578 32 43.5578C25.6168 43.5578 20.4422 38.3832 20.4422 32ZM32 26.2211C28.8084 26.2211 26.2211 28.8084 26.2211 32C26.2211 35.1916 28.8084 37.7789 32 37.7789C35.1916 37.7789 37.7789 35.1916 37.7789 32C37.7789 28.8084 35.1916 26.2211 32 26.2211Z" fill="#537FB6"/>
<path fill-rule="evenodd" clip-rule="evenodd" d="M64 32C64 49.6731 49.6731 64 32 64C14.3269 64 0 49.6731 0 32C0 14.3269 14.3269 0 32 0C49.6731 0 64 14.3269 64 32ZM32 57.485C46.075 57.485 57.485 46.075 57.485 32C57.485 17.925 46.075 6.51497 32 6.51497C17.925 6.51497 6.51497 17.925 6.51497 32C6.51497 46.075 17.925 57.485 32 57.485Z" fill="#537FB6"/>
<path d="M49.3367 18.9973C49.3367 21.391 47.3962 23.3315 45.0025 23.3315C42.6088 23.3315 40.6683 21.391 40.6683 18.9973C40.6683 16.6036 42.6088 14.6631 45.0025 14.6631C47.3962 14.6631 49.3367 16.6036 49.3367 18.9973Z" fill="#537FB6"/>
<path fill-rule="evenodd" clip-rule="evenodd" d="M32 20.442C25.6168 20.442 20.4421 25.6166 20.4421 31.9998C20.4421 38.3831 25.6168 43.5577 32 43.5577C32.3989 43.5577 32.7932 43.5375 33.1817 43.498C33.5733 43.4582 33.9591 43.3989 34.3381 43.3211C38.0961 42.549 41.1885 39.9529 42.6495 36.4987C43.2344 35.1159 43.5578 33.5956 43.5578 31.9998C43.5578 25.6166 38.3832 20.442 32 20.442ZM26.2211 31.9998C26.2211 28.8082 28.8084 26.2209 32 26.2209C35.1916 26.2209 37.7789 28.8082 37.7789 31.9998C37.7789 35.1914 35.1916 37.7788 32 37.7788C28.8084 37.7788 26.2211 35.1914 26.2211 31.9998Z" fill="#537FB6"/>
<path d="M64 31.9999C64 49.673 49.6731 63.9999 32 63.9999V57.4849C46.075 57.4849 57.485 46.0749 57.485 31.9999H64Z" fill="#537FB6"/>
</g>
<defs>
<clipPath id="clip0_1_435">
<rect width="64" height="64" fill="white"/>
</clipPath>
</defs>
</svg>
